<svg xmlns="http://www.w3.org/2000/svg" version="1.1" viewBox="317.9 430 604.17 276.69">
<path d="M0 0 C27.64670025 2.17870983 59.04519061 14.04519061 79 34 C78.27848878 21.47658493 78.27848878 21.47658493 77 9 C82.74661599 9.51654975 87.07175481 11.81087024 92.0625 14.5 C92.90377441 14.94996338 93.74504883 15.39992676 94.61181641 15.86352539 C106.84767322 22.51903681 117.64781687 30.72528899 128 40 C128.77859375 40.69351563 129.5571875 41.38703125 130.359375 42.1015625 C142.99564859 54.04606928 152.32774047 69.07295415 161 84 C161.75379794 85.27089758 162.50769967 86.54173361 163.26171875 87.8125 C191.70297685 136.39647217 191.70297685 136.39647217 192 156 C190.49609375 158.31640625 190.49609375 158.31640625 188.4375 160.5625 C185.58630995 164.30422036 185.58630995 164.30422036 185.09082031 168.85400391 C185.31350586 169.86382324 185.53619141 170.87364258 185.765625 171.9140625 C187.13878911 179.26233212 187.34640124 186.34992978 187.3125 193.8125 C187.31001251 194.47085846 187.30752502 195.12921692 187.30496216 195.80752563 C187.17024356 218.90039337 180.78463023 239.22697418 169 259 C168.51273438 259.98097656 168.02546875 260.96195313 167.5234375 261.97265625 C164.55806095 266.93199289 161.48864112 269.04821324 156.01171875 270.6484375 C150.06363236 272.12052052 144.05718047 273.10068515 138 274 C137.21802246 274.12842285 136.43604492 274.2568457 135.63037109 274.38916016 C82.20758306 283.06444824 23.45376891 266.64669629 -20.27490234 235.37304688 C-24.3571605 232.36737995 -28.38405756 229.29544355 -32.36279297 226.15405273 C-35.57940058 223.88669452 -38.2997162 222.77035015 -42.22265625 222.4375 C-43.40118164 222.32535156 -43.40118164 222.32535156 -44.60351562 222.2109375 C-46.24671629 222.06997986 -47.88994566 221.92935642 -49.53320312 221.7890625 C-50.70979492 221.67691406 -50.70979492 221.67691406 -51.91015625 221.5625 C-52.62308838 221.50191406 -53.33602051 221.44132813 -54.07055664 221.37890625 C-56 221 -56 221 -59 219 C-57.27716797 218.09121094 -57.27716797 218.09121094 -55.51953125 217.1640625 C-22.53690995 199.49301901 -1.91499043 174.0200433 9.20703125 138.3125 C13.49037505 123.76958204 17.07296717 108.27145719 17.23828125 93.06640625 C17.2480751 92.31995346 17.25786896 91.57350067 17.26795959 90.8044281 C17.44777415 73.51906897 17.07492624 56.90031767 13 40 C12.78037598 39.08879395 12.56075195 38.17758789 12.33447266 37.23876953 C9.57040103 26.15705278 5.89582903 15.63392005 1.3203125 5.17578125 C0 2 0 2 0 0 Z " fill="#F21696" transform="translate(730,430)"/>
<path d="M0 0 C31.59999698 2.49025104 62.98217032 17.0696843 84.9765625 39.9375 C86.80980397 41.80613223 88.68849623 43.50057699 90.6875 45.1875 C99.76640999 52.99025798 108.41523762 61.73877727 116 71 C116.41926758 71.50547363 116.83853516 72.01094727 117.27050781 72.53173828 C123.18232861 79.67738322 128.8521867 86.97497029 134.1875 94.5625 C134.65704102 95.21669922 135.12658203 95.87089844 135.61035156 96.54492188 C138.20904779 100.31390475 140.01769829 103.28635597 140 108 C139.1556617 111.24976939 137.93014889 114.28536847 136.625 117.375 C136.07743042 118.69685303 136.07743042 118.69685303 135.51879883 120.04541016 C122.14158189 151.56908793 99.18314075 175.11158177 69 191 C68.11562256 191.47469727 68.11562256 191.47469727 67.21337891 191.95898438 C35.35254788 208.82598002 -2.48362541 216.66156423 -38.015625 220.60546875 C-41.0465237 220.91041512 -41.0465237 220.91041512 -44 222 C-46.00238447 221.96384584 -48.00400606 221.85138676 -50 221.6875 C-51.051875 221.60886719 -52.10375 221.53023437 -53.1875 221.44921875 C-56 221 -56 221 -59 219 C-57.27716797 218.09121094 -57.27716797 218.09121094 -55.51953125 217.1640625 C-22.53690995 199.49301901 -1.91499043 174.0200433 9.20703125 138.3125 C13.49037505 123.76958204 17.07296717 108.27145719 17.23828125 93.06640625 C17.2480751 92.31995346 17.25786896 91.57350067 17.26795959 90.8044281 C17.44777415 73.51906897 17.07492624 56.90031767 13 40 C12.78037598 39.08879395 12.56075195 38.17758789 12.33447266 37.23876953 C9.57040103 26.15705278 5.89582903 15.63392005 1.3203125 5.17578125 C0 2 0 2 0 0 Z " fill="#FDDF26" transform="translate(730,430)"/>
<path d="M0 0 C0.99 0.495 0.99 0.495 2 1 C4.58056227 9.2482754 4.35081398 18.14132327 4.3125 26.6875 C4.31001251 27.35085358 4.30752502 28.01420715 4.30496216 28.69766235 C4.17077524 51.83880706 -2.189331 72.18328463 -14 92 C-14.48726562 92.98097656 -14.97453125 93.96195313 -15.4765625 94.97265625 C-18.44193905 99.93199289 -21.51135888 102.04821324 -26.98828125 103.6484375 C-32.93636764 105.12052052 -38.94281953 106.10068515 -45 107 C-45.78197754 107.12842285 -46.56395508 107.2568457 -47.36962891 107.38916016 C-102.15496059 116.28571072 -161.0352931 98.7436445 -205.6484375 66.703125 C-216.70751321 58.58497358 -216.70751321 58.58497358 -218 56 C-217.45400146 56.07516846 -216.90800293 56.15033691 -216.34545898 56.2277832 C-215.57016846 56.33437256 -214.79487793 56.44096191 -213.99609375 56.55078125 C-213.12364014 56.67090576 -212.25118652 56.79103027 -211.35229492 56.91479492 C-209.36728886 57.18563627 -207.38174691 57.45257223 -205.39575195 57.71606445 C-200.53579764 58.36312334 -195.69142423 59.03544132 -190.859375 59.8671875 C-164.53431105 64.181202 -135.38315201 63.81979891 -109 60 C-107.48623779 59.7819873 -107.48623779 59.7819873 -105.94189453 59.55957031 C-64.40477863 53.24678552 -26.92458866 34.53836349 -1 1 C-0.67 0.67 -0.34 0.34 0 0 Z " fill="#1BB1F0" transform="translate(913,597)"/>
<path d="M0 0 C0.6959729 0.59748047 0.6959729 0.59748047 1.40600586 1.20703125 C5.16071759 4.43131827 5.16071759 4.43131827 8.94140625 7.625 C18.65697225 15.86567285 27.92712302 25.14277468 36 35 C36.41926758 35.50547363 36.83853516 36.01094727 37.27050781 36.53173828 C43.18232861 43.67738322 48.8521867 50.97497029 54.1875 58.5625 C54.89181152 59.54379883 54.89181152 59.54379883 55.61035156 60.54492188 C58.20904779 64.31390475 60.01769829 67.28635597 60 72 C59.1556617 75.24976939 57.93014889 78.28536847 56.625 81.375 C56.07743042 82.69685303 56.07743042 82.69685303 55.51879883 84.04541016 C42.14158189 115.56908793 19.18314075 139.11158177 -11 155 C-11.88437744 155.47469727 -11.88437744 155.47469727 -12.78662109 155.95898438 C-44.64745212 172.82598002 -82.48362541 180.66156423 -118.015625 184.60546875 C-121.0465237 184.91041512 -121.0465237 184.91041512 -124 186 C-126.00238447 185.96384584 -128.00400606 185.85138676 -130 185.6875 C-131.051875 185.60886719 -132.10375 185.53023437 -133.1875 185.44921875 C-136 185 -136 185 -139 183 C-138.00484375 182.98582031 -137.0096875 182.97164062 -135.984375 182.95703125 C-110.96802277 182.25538271 -87.69885641 173.45920753 -68 158 C-67.4647168 157.58137695 -66.92943359 157.16275391 -66.37792969 156.73144531 C-47.79218388 142.04358878 -34.99174031 123.81231272 -24 103 C-23.64808594 102.33468262 -23.29617188 101.66936523 -22.93359375 100.98388672 C-8.27456772 73.02490488 -1.50104227 43.9427603 -0.4375 12.4375 C-0.37272461 10.63829102 -0.37272461 10.63829102 -0.30664062 8.80273438 C-0.20143198 5.86858207 -0.09929117 2.9343575 0 0 Z " fill="#FBBA19" transform="translate(810,466)"/>
<path d="M0 0 C1.35683751 1.6475884 2.68456721 3.31916921 4 5 C4.763125 5.928125 5.52625 6.85625 6.3125 7.8125 C8.47521802 11.89763404 8.20922605 14.7038677 7 19 C5.79317779 22.39267288 4.45161793 25.70516489 3 29 C9.77510356 20.39898201 15.52590378 11.47290409 21 2 C29.08467057 5.23744552 33.49841122 15.51971847 37.5625 22.8125 C37.92118164 23.43406982 38.27986328 24.05563965 38.64941406 24.69604492 C40.23772187 27.65294199 41.00361754 29.75822798 40.953125 33.1328125 C39.10139366 38.70318465 34.84133242 42.67969167 31 47 C30.54125488 47.52577637 30.08250977 48.05155273 29.60986328 48.59326172 C-4.58908718 87.68954898 -53.33181314 103.62972362 -103.9609375 107.59765625 C-111.03871832 108.05586983 -118.09610382 108.191236 -125.1875 108.1875 C-127.14151733 108.1884668 -127.14151733 108.1884668 -129.13500977 108.18945312 C-145.11736611 108.13437978 -161.05931409 107.07558509 -177 106 C-177.33 105.34 -177.66 104.68 -178 104 C-176.7625 103.82984375 -175.525 103.6596875 -174.25 103.484375 C-169.52022086 102.82740979 -164.79472297 102.14318891 -160.0703125 101.44873047 C-158.08667344 101.15881884 -156.10233257 100.87365148 -154.1171875 100.59423828 C-136.98876429 98.16122362 -120.5491164 94.01718621 -104 89 C-103.06671875 88.71785645 -102.1334375 88.43571289 -101.171875 88.14501953 C-74.75737211 79.97553407 -50.8073652 67.33079702 -31 48 C-30.29746094 47.35933594 -29.59492187 46.71867188 -28.87109375 46.05859375 C-15.64726141 33.68963542 -6.05460904 16.92900554 0 0 Z " fill="#DE1096" transform="translate(866,546)"/>
<path d="M0 0 C1.15855499 -0.01283524 2.31710999 -0.02567047 3.51077271 -0.03889465 C4.77420502 -0.04628159 6.03763733 -0.05366852 7.33935547 -0.0612793 C8.63090546 -0.06935104 9.92245544 -0.07742279 11.25314331 -0.08573914 C13.99542105 -0.10078589 16.73767272 -0.11061223 19.47998047 -0.11816406 C22.98044367 -0.12918867 26.48026412 -0.16353309 29.98050117 -0.20333576 C33.32925936 -0.2359027 36.67795119 -0.24029115 40.02685547 -0.2487793 C41.2781424 -0.26628738 42.52942932 -0.28379547 43.81863403 -0.30183411 C50.60103303 -0.28498238 55.16487935 -0.08113812 60.58154297 4.17700195 C64.75472123 9.11008026 65.18343758 14.9618251 65.01904297 21.17700195 C65.02613281 21.93239258 65.03322266 22.6877832 65.04052734 23.46606445 C64.95233019 31.36310177 62.69152684 37.79889138 57.32373047 43.6340332 C53.575719 46.9534604 49.58010028 49.01045551 44.58154297 49.42700195 C43.92154297 49.34450195 43.26154297 49.26200195 42.58154297 49.17700195 C45.31529112 52.81352275 48.13610887 55.61645616 51.70654297 58.42700195 C57.17103301 62.81036139 62.55450662 67.29172585 67.58154297 72.17700195 C67.58154297 72.50700195 67.58154297 72.83700195 67.58154297 73.17700195 C47.95131992 75.25681369 47.95131992 75.25681369 41.42529297 70.85668945 C38.43239047 68.40397932 35.74999291 65.66321143 33.12548828 62.82397461 C27.78502919 57.12714712 21.88117222 50.87731506 13.83154297 50.05200195 C12.42904297 50.09325195 11.02654297 50.13450195 9.58154297 50.17700195 C9.58154297 45.22700195 9.58154297 40.27700195 9.58154297 35.17700195 C11.97791016 35.1512207 14.37427734 35.12543945 16.84326172 35.09887695 C19.17337611 35.0604243 21.50327161 35.01527476 23.83325195 34.96948242 C25.44805386 34.9413201 27.0629924 34.92008195 28.67797852 34.90600586 C31.00461534 34.88450937 33.32961774 34.83782985 35.65576172 34.78637695 C36.37366379 34.78514832 37.09156586 34.78391968 37.83122253 34.78265381 C42.6611056 34.64266445 45.22678198 33.66528774 48.58154297 30.17700195 C50.2139985 25.80668163 50.2139985 25.80668163 49.58154297 15.17700195 C27.80154297 14.68200195 27.80154297 14.68200195 5.58154297 14.17700195 C5.58154297 33.64700195 5.58154297 53.11700195 5.58154297 73.17700195 C0.63154297 73.17700195 -4.31845703 73.17700195 -9.41845703 73.17700195 C-9.48628281 64.52764994 -9.54130182 55.87847509 -9.57389355 47.22891712 C-9.58953738 43.21240659 -9.61075195 39.19608773 -9.64477539 35.1796875 C-9.677415 31.30230009 -9.6953197 27.42509684 -9.70308876 23.54758263 C-9.70862404 22.06961863 -9.71943322 20.59166449 -9.7356472 19.11377907 C-9.75748344 17.04063913 -9.76042149 14.96825631 -9.7590332 12.89501953 C-9.76569504 11.71587479 -9.77235687 10.53673004 -9.77922058 9.32185364 C-8.98501517 2.39859817 -6.51741115 0.06260645 0 0 Z " fill="#FFFFFF" transform="translate(412.41845703125,576.822998046875)"/>
<path d="M0 0 C1.09511398 -0.01283524 2.19022797 -0.02567047 3.31852722 -0.03889465 C4.50287857 -0.04628159 5.68722992 -0.05366852 6.9074707 -0.0612793 C8.12723099 -0.06935104 9.34699127 -0.07742279 10.60371399 -0.08573914 C13.18859434 -0.09958035 15.77349298 -0.11030233 18.35839844 -0.11816406 C22.30024153 -0.13535409 26.24124108 -0.17923937 30.18286133 -0.22338867 C32.69522496 -0.23351768 35.20759571 -0.24203313 37.7199707 -0.2487793 C38.8942009 -0.26628738 40.06843109 -0.28379547 41.27824402 -0.30183411 C48.21182506 -0.28357403 52.78077645 0.37869543 58.64575195 4.17700195 C63.06611447 9.73043207 63.26466539 14.61538483 63.14575195 21.55200195 C63.16895508 22.89391602 63.16895508 22.89391602 63.19262695 24.26293945 C63.15192571 31.26355276 61.76102033 37.59888 57.06005859 42.99829102 C52.6755889 47.24576776 47.3430605 49.22822438 41.64575195 51.17700195 C48.05987544 57.11968116 54.52570861 62.79957944 61.4309082 68.16918945 C63.60563552 70.14063538 64.4440779 71.56253514 65.64575195 74.17700195 C47.02961185 76.2555289 47.02961185 76.2555289 40.59106445 71.8918457 C37.59517385 69.43604186 34.89892714 66.69682108 32.25317383 63.87133789 C29.60901574 61.08420892 26.78650662 58.51737735 23.89575195 55.98950195 C23.3644165 55.5227002 22.83308105 55.05589844 22.28564453 54.57495117 C17.4423688 50.56055568 13.81683831 49.90068465 7.64575195 50.17700195 C7.64575195 45.55700195 7.64575195 40.93700195 7.64575195 36.17700195 C9.88614258 36.13961914 12.1265332 36.10223633 14.43481445 36.0637207 C16.61931784 36.01742798 18.80365512 35.96622281 20.98803711 35.91455078 C22.49900099 35.8814227 24.01008502 35.85335341 25.52124023 35.83056641 C27.70128278 35.79679515 29.88023634 35.74447299 32.05981445 35.6887207 C34.02362061 35.64944458 34.02362061 35.64944458 36.02709961 35.609375 C39.92457492 35.14368692 42.35948091 34.30681309 45.64575195 32.17700195 C48.61471474 26.98443237 48.61471474 26.98443237 47.64575195 15.17700195 C25.86575195 14.68200195 25.86575195 14.68200195 3.64575195 14.17700195 C3.64575195 33.97700195 3.64575195 53.77700195 3.64575195 74.17700195 C-0.97424805 74.17700195 -5.59424805 74.17700195 -10.35424805 74.17700195 C-10.39940619 65.1019516 -10.4361107 56.0269757 -10.45787239 46.95183849 C-10.46831612 42.73803221 -10.48248604 38.52430668 -10.50512695 34.31054688 C-10.52683437 30.24514788 -10.53881223 26.17982663 -10.54400253 22.11437416 C-10.54770207 20.56220589 -10.55492623 19.01004195 -10.56570816 17.45790672 C-10.58019531 15.28629689 -10.58222718 13.11500964 -10.58129883 10.94335938 C-10.58574005 9.70647873 -10.59018127 8.46959808 -10.59475708 7.19523621 C-10.35424805 4.17700195 -10.35424805 4.17700195 -8.35424805 1.17700195 C-5.30737056 0.16137612 -3.19092754 0.03258378 0 0 Z " fill="#FFFFFF" transform="translate(668.354248046875,490.822998046875)"/>
<path d="M0 0 C0.82823776 -0.00938095 1.65647552 -0.0187619 2.5098114 -0.02842712 C3.83490471 -0.01157616 3.83490471 -0.01157616 5.18676758 0.00561523 C6.11040604 0.00416 7.03404449 0.00270477 7.985672 0.00120544 C9.938234 0.00286268 11.89080929 0.0144043 13.84326172 0.03515625 C16.80404461 0.06394399 19.76301614 0.05579412 22.72387695 0.04272461 C24.6281824 0.04896804 26.53248225 0.05736368 28.43676758 0.06811523 C29.74667915 0.06371178 29.74667915 0.06371178 31.08305359 0.05921936 C39.8193314 0.19051397 47.91411896 2.04410231 54.81958008 7.61889648 C62.75636498 15.81061023 63.8977428 24.05926199 63.99389648 34.99609375 C64.01034924 36.36247924 64.0374967 37.72878254 64.07592773 39.09472656 C64.38694113 50.23035842 62.84861436 57.95119019 55.39379883 66.37670898 C47.57463061 73.61541493 38.33788631 74.65414615 28.14379883 74.73999023 C27.23049805 74.74806198 26.31719727 74.75613373 25.3762207 74.76445007 C23.44980748 74.77824514 21.52337029 74.78898764 19.59692383 74.796875 C17.62810094 74.80843142 15.65931025 74.8289405 13.69067383 74.85839844 C10.8414996 74.90101226 7.99325186 74.91723147 5.14379883 74.92749023 C3.82798828 74.95375237 3.82798828 74.95375237 2.4855957 74.98054504 C1.66124023 74.97761948 0.83688477 74.97469391 -0.01245117 74.97167969 C-0.73239258 74.97754593 -1.45233398 74.98341217 -2.1940918 74.98945618 C-5.44632061 74.25579048 -7.06556973 72.89809292 -9.35620117 70.50170898 C-9.99111938 67.54199219 -9.99111938 67.54199219 -10.00317383 64.05249023 C-10.01893463 62.7443335 -10.03469543 61.43617676 -10.05093384 60.08837891 C-10.04198406 58.66364703 -10.03172908 57.23892284 -10.02026367 55.81420898 C-10.02363304 54.34976804 -10.02848666 52.88532982 -10.03475952 51.42089844 C-10.04212539 48.35413953 -10.03143601 45.28810959 -10.00805664 42.22143555 C-9.97956726 38.2933602 -9.99597302 34.36699279 -10.02591896 30.4389801 C-10.04400071 27.41568162 -10.03823028 24.39278707 -10.02528 21.36947632 C-10.02194832 19.92141517 -10.02602482 18.47331716 -10.03767776 17.02529907 C-10.0503969 15.00051591 -10.02756733 12.9756039 -10.00317383 10.95092773 C-9.99919586 9.79939209 -9.9952179 8.64785645 -9.99111938 7.46142578 C-9.35620117 4.50170898 -9.35620117 4.50170898 -7.08802795 2.12998962 C-4.3715528 0.51085919 -3.09719356 0.0007122 0 0 Z M4.64379883 14.50170898 C4.64379883 29.68170898 4.64379883 44.86170898 4.64379883 60.50170898 C11.79036133 60.59452148 11.79036133 60.59452148 19.08129883 60.68920898 C20.56557373 60.716521 22.04984863 60.74383301 23.57910156 60.77197266 C35.16317131 61.05723969 35.16317131 61.05723969 45.25097656 56.08447266 C50.30297093 50.34352972 49.85647384 44.90692826 49.89379883 37.68920898 C49.91442383 36.7037207 49.93504883 35.71823242 49.95629883 34.70288086 C49.98581796 29.20863328 49.79252215 25.22101851 46.64379883 20.50170898 C41.20474587 15.20965746 35.68539157 14.2451669 28.27661133 14.30639648 C27.03282715 14.3113916 25.78904297 14.31638672 24.50756836 14.3215332 C22.94377441 14.33974121 21.37998047 14.35794922 19.76879883 14.37670898 C12.28192383 14.43858398 12.28192383 14.43858398 4.64379883 14.50170898 Z " fill="#FFFFFF" transform="translate(503.356201171875,490.498291015625)"/>
<path d="M0 0 C6.26732157 2.29801791 10.03055222 7.21338637 14.30859375 12.18701172 C18.58474401 17.14312805 23.07788222 21.79238639 27.75 26.375 C31.71916633 30.26812866 35.6199474 34.16051716 39.25 38.375 C42.89828457 42.54446808 46.83244691 46.45744691 50.75 50.375 C51.08 34.205 51.41 18.035 51.75 1.375 C56.37 1.375 60.99 1.375 65.75 1.375 C65.81781972 10.2851199 65.87284133 19.19506792 65.90543652 28.10538769 C65.92108182 32.24296356 65.94229917 36.38035343 65.97631836 40.51782227 C66.00895259 44.51191851 66.02686156 48.50583602 66.03463173 52.50005531 C66.04016797 54.02267584 66.050979 55.54528675 66.06719017 57.06783104 C66.08901914 59.2032307 66.09196474 61.3378951 66.09057617 63.47338867 C66.10056892 65.29540047 66.10056892 65.29540047 66.11076355 67.15422058 C65.71383519 70.69786763 64.92942104 72.57430811 62.75 75.375 C59.3933348 76.54253572 57.61436149 76.72960984 54.3125 75.375 C49.51567853 71.63113934 45.47075815 67.25222112 41.5234375 62.63671875 C37.78770643 58.34899455 33.80820894 54.35546547 29.75 50.375 C25.78083367 46.48187134 21.8800526 42.58948284 18.25 38.375 C14.60171543 34.20553192 10.66755309 30.29255309 6.75 26.375 C6.42 42.545 6.09 58.715 5.75 75.375 C1.13 75.375 -3.49 75.375 -8.25 75.375 C-8.36302783 66.33451254 -8.45473079 57.29449542 -8.50906086 48.25346088 C-8.53513862 44.05518119 -8.57050223 39.85741055 -8.62719727 35.65942383 C-8.68158381 31.60694068 -8.71143425 27.55494667 -8.72438622 23.50212669 C-8.73361434 21.95712777 -8.75163536 20.41215517 -8.77865028 18.86736488 C-8.81503239 16.70046086 -8.81994204 14.53556924 -8.81762695 12.3684082 C-8.82873001 11.13596878 -8.83983307 9.90352936 -8.85127258 8.63374329 C-7.8966166 3.45975253 -5.2561783 0.60648211 0 0 Z " fill="#FFFFFF" transform="translate(414.25,489.625)"/>
<path d="M0 0 C5.62988831 3.5774443 9.87921799 9.02483336 14.2421875 13.98828125 C18.34525333 18.55439392 22.77305751 22.81639171 27.15234375 27.11499023 C30.39138099 30.31290065 33.52081062 33.54269672 36.4921875 36.9921875 C40.14347238 41.16392279 44.07984333 45.07984333 48 49 C48.33 33.16 48.66 17.32 49 1 C53.62 1 58.24 1 63 1 C63.06773551 10.20542911 63.12279265 19.41069312 63.15543652 28.61631489 C63.17110272 32.89070699 63.1923582 37.16491998 63.22631836 41.43920898 C63.25887809 45.56297253 63.27684582 49.68656363 63.28463173 53.81044579 C63.29018136 55.38495792 63.30101831 56.95946045 63.31719017 58.53389931 C63.33892005 60.73675672 63.34196888 62.93889862 63.34057617 65.1418457 C63.35056892 67.02381401 63.35056892 67.02381401 63.36076355 68.94380188 C63 72 63 72 61.67793274 73.88957214 C58.62080982 75.91272502 56.56324797 75.58413901 53 75 C46.54363324 71.13486564 41.49655613 64.33446867 36.43115234 58.83935547 C32.56644775 54.64802701 28.62230491 50.5647603 24.5625 46.5625 C21.32196395 43.36458182 18.16187113 40.13777051 15.1875 36.6875 C11.96893902 32.96406671 8.48016453 29.48016453 5 26 C4.67 41.84 4.34 57.68 4 74 C-0.62 74 -5.24 74 -10 74 C-10.06773551 64.79457089 -10.12279265 55.58930688 -10.15543652 46.38368511 C-10.17110272 42.10929301 -10.1923582 37.83508002 -10.22631836 33.56079102 C-10.25887809 29.43702747 -10.27684582 25.31343637 -10.28463173 21.18955421 C-10.29018136 19.61504208 -10.30101831 18.04053955 -10.31719017 16.46610069 C-10.33892005 14.26324328 -10.34196888 12.06110138 -10.34057617 9.8581543 C-10.34723801 8.60350876 -10.35389984 7.34886322 -10.36076355 6.05619812 C-10 3 -10 3 -8.67793274 1.11042786 C-5.62080982 -0.91272502 -3.56324797 -0.58413901 0 0 Z " fill="#FFFFFF" transform="translate(528,576)"/>
<path d="M0 0 C1.34935387 -0.00574036 1.34935387 -0.00574036 2.72596741 -0.01159668 C4.61769742 -0.01430374 6.50946564 -0.00702758 8.40112305 0.00976562 C11.27413635 0.03116791 14.14464223 0.00993624 17.01757812 -0.015625 C18.86589086 -0.01298102 20.71420206 -0.00785459 22.5625 0 C23.40965073 -0.00809692 24.25680145 -0.01619385 25.12962341 -0.02453613 C31.86720636 0.07977978 38.07349784 1.60599031 43.20787048 6.1932373 C49.29609692 12.57577739 50.85459327 19.94068433 50.72265625 28.53125 C50.73425781 29.28664063 50.74585938 30.04203125 50.7578125 30.8203125 C50.72532726 37.1224491 49.47348861 42.55824187 45.76953125 47.73828125 C38.03003999 55.17036281 30.40723916 56.67148833 19.76171875 56.62890625 C19.059935 56.6274913 18.35815125 56.62607635 17.63510132 56.62461853 C15.41424121 56.6190629 13.19348541 56.60651892 10.97265625 56.59375 C9.4583348 56.58872926 7.94401175 56.58416736 6.4296875 56.58007812 C2.73560547 56.56996289 -0.95825366 56.55037935 -4.65234375 56.53125 C-4.65234375 51.58125 -4.65234375 46.63125 -4.65234375 41.53125 C-2.25597656 41.50546875 0.14039063 41.4796875 2.609375 41.453125 C4.93948939 41.41467234 7.26938489 41.36952281 9.59936523 41.32373047 C11.21416714 41.29556814 12.82910568 41.27433 14.4440918 41.26025391 C16.77072862 41.23875742 19.09573102 41.19207789 21.421875 41.140625 C22.13977707 41.13939636 22.85767914 41.13816772 23.59733582 41.13690186 C28.4366883 40.99663804 30.94447253 39.96699046 34.34765625 36.53125 C36.43616773 32.35422704 35.79241513 27.07965084 35.34765625 22.53125 C34.08560406 19.33125986 32.49727679 17.10606027 29.34765625 15.53125 C26.66048801 15.43235415 23.99980484 15.3914094 21.3125 15.3984375 C20.51864395 15.39748077 19.7247879 15.39652405 18.90687561 15.39553833 C17.22819947 15.39485749 15.5495207 15.3967051 13.87084961 15.40087891 C11.29209528 15.40623559 8.71351457 15.40092708 6.13476562 15.39453125 C4.50651003 15.39519191 2.87825454 15.39647282 1.25 15.3984375 C0.47397934 15.39641327 -0.30204132 15.39438904 -1.10157776 15.39230347 C-4.67243202 15.07519011 -4.67243202 15.07519011 -7.65234375 16.53125 C-7.77557133 18.31028357 -7.83023394 20.09411203 -7.85766602 21.87719727 C-7.87761124 23.0183046 -7.89755646 24.15941193 -7.91810608 25.33509827 C-7.94317482 27.19756447 -7.94317482 27.19756447 -7.96875 29.09765625 C-7.9895311 30.36141586 -8.01031219 31.62517548 -8.03172302 32.92723083 C-8.08618089 36.29243633 -8.13638655 39.65765173 -8.18457031 43.02294922 C-8.23474134 46.45480901 -8.2904503 49.88657831 -8.34570312 53.31835938 C-8.4530457 60.05591992 -8.55427546 66.79354834 -8.65234375 73.53125 C-13.27234375 73.53125 -17.89234375 73.53125 -22.65234375 73.53125 C-22.76565298 65.71605084 -22.85723558 57.90130677 -22.91140461 50.08551025 C-22.9374135 46.45562026 -22.97264834 42.82632508 -23.02954102 39.19677734 C-23.08417732 35.68891623 -23.11382967 32.18162439 -23.12672997 28.67337036 C-23.1403599 26.69473473 -23.1793428 24.71632571 -23.21882629 22.73803711 C-23.22077655 16.43438159 -23.15664411 11.23999738 -19.24200439 6.07946777 C-13.65051567 0.63375063 -7.51514977 -0.07165731 0 0 Z " fill="#FFFFFF" transform="translate(342.65234375,576.46875)"/>
<path d="M0 0 C2.21938778 3.32908167 3.42348225 6.68145864 4.6875 10.4375 C4.92533203 11.10587891 5.16316406 11.77425781 5.40820312 12.46289062 C7.51418718 18.6943801 7.51418718 18.6943801 6 22 C2.17467614 28.48938869 -2.7188159 34.11869476 -7.81640625 39.62890625 C-9.75144507 41.73010224 -11.59871019 43.87758505 -13.4375 46.0625 C-37.9248679 73.88148258 -75.00729229 88.18961263 -111 93 C-112.25393555 93.17354004 -112.25393555 93.17354004 -113.53320312 93.35058594 C-149.71426014 98.08757747 -187.4118324 95.73822374 -223 88 C-223 87.67 -223 87.34 -223 87 C-222.19296631 87.03029297 -221.38593262 87.06058594 -220.55444336 87.09179688 C-153.20849057 89.55955076 -82.43073803 88.47981817 -30 39.9375 C-24.13277958 34.36459122 -18.86139385 28.47866857 -14 22 C-13.30390625 21.09636719 -12.6078125 20.19273437 -11.890625 19.26171875 C-7.28720298 13.14401318 -3.48028596 6.81556 0 0 Z " fill="#DE3DAB" transform="translate(915,565)"/>
<path d="M0 0 C4.62 0 9.24 0 14 0 C14.01981934 1.06847168 14.03963867 2.13694336 14.06005859 3.23779297 C14.13678418 7.24501023 14.22539166 11.25189561 14.31738281 15.25878906 C14.3553985 16.98495884 14.39029635 18.71120047 14.421875 20.4375 C14.01958644 37.41074631 14.01958644 37.41074631 20.44921875 52.53125 C30.56079178 62.10795392 47.9625865 59.4984411 60 60 C60 40.2 60 20.4 60 0 C64.62 0 69.24 0 74 0 C74.11303265 8.91010329 74.20473348 17.81972923 74.25906086 26.73038769 C74.28513747 30.86813718 74.32049885 35.00537008 74.37719727 39.14282227 C74.4315881 43.13695146 74.46143511 47.13058431 74.47438622 51.12505531 C74.48361359 52.6477267 74.50163316 54.17037139 74.52865028 55.69283104 C74.56503836 57.82861043 74.56994183 59.96234839 74.56762695 62.09838867 C74.57873001 63.3130632 74.58983307 64.52773773 74.60127258 65.77922058 C73.82278298 69.94928148 72.3058113 71.42142723 69 74 C66.06492754 74.47650964 63.72789148 74.65773623 60.8046875 74.59375 C60.01659698 74.59379028 59.22850647 74.59383057 58.41653442 74.59387207 C56.75059022 74.58852308 55.08464613 74.5709665 53.41894531 74.54199219 C50.90348647 74.50047022 48.39074086 74.50090112 45.875 74.5078125 C33.02876381 74.45759453 21.45673158 73.19437228 11 65 C1.6977637 55.54009868 -0.17226779 45.05960214 -0.09765625 32.2265625 C-0.0962413 31.3028183 -0.09482635 30.3790741 -0.09336853 29.42733765 C-0.08779609 26.49319138 -0.07524869 23.55912299 -0.0625 20.625 C-0.05748144 18.62890736 -0.05291915 16.63281351 -0.04882812 14.63671875 C-0.03783569 9.75778275 -0.0205901 4.87890455 0 0 Z " fill="#FFFFFF" transform="translate(318,491)"/>
<path d="M0 0 C2.47312309 0.97115322 4.84580033 2.00367478 7.25 3.125 C13.5626871 5.98197681 19.87288466 8.50068166 26.42578125 10.76171875 C28.42168061 11.45319427 30.41369205 12.15738147 32.38793945 12.90844727 C39.66583482 15.65810993 47.01120164 17.70568291 54.5625 19.5625 C55.78960693 19.86623535 57.01671387 20.1699707 58.28100586 20.48291016 C100.8457727 30.82721311 143.53805654 29.34614774 185 15 C186.74268522 14.41556479 188.48610784 13.83332089 190.23046875 13.25390625 C191.47441406 12.84011719 192.71835937 12.42632813 194 12 C194 11.34 194 10.68 194 10 C194.99 10 195.98 10 197 10 C195.61206358 14.65241953 193.66506726 18.74800355 191.25 22.9375 C190.92773438 23.51951172 190.60546875 24.10152344 190.2734375 24.70117188 C189.23913261 26.51120544 188.14454169 28.25765244 187 30 C186.39333496 30.94129761 186.39333496 30.94129761 185.77441406 31.90161133 C181.59963479 37.58941286 176.99717589 38.62744834 170.25 39.8125 C169.22285889 40.01061279 168.19571777 40.20872559 167.13745117 40.4128418 C164.09692526 40.98115336 161.05255537 41.50078162 158 42 C156.82268311 42.19916016 156.82268311 42.19916016 155.62158203 42.40234375 C103.51088071 50.83288666 44.89730744 35.48707356 2 5 C-0.50390625 2.67578125 -0.50390625 2.67578125 -2 1 C-1.34 0.67 -0.68 0.34 0 0 Z " fill="#44C2F7" transform="translate(710,662)"/>
<path d="M0 0 C1.38289611 0.00933289 2.76580882 0.01644676 4.14872742 0.0214386 C7.7774165 0.04047177 11.40509479 0.08953805 15.03338623 0.1449585 C18.74021736 0.19623215 22.44721286 0.21896978 26.15429688 0.24414062 C33.41978363 0.29766312 40.68423042 0.38556575 47.94921875 0.48828125 C47.94921875 5.10828125 47.94921875 9.72828125 47.94921875 14.48828125 C30.45921875 14.48828125 12.96921875 14.48828125 -5.05078125 14.48828125 C-4.94765625 21.35640625 -4.84453125 28.22453125 -4.73828125 35.30078125 C-4.71338623 37.46616455 -4.68849121 39.63154785 -4.6628418 41.86254883 C-4.63055867 43.57765903 -4.59718592 45.29274921 -4.5625 47.0078125 C-4.5562561 47.89932007 -4.55001221 48.79082764 -4.5435791 49.70935059 C-4.52363892 50.56170288 -4.50369873 51.41405518 -4.4831543 52.29223633 C-4.47205124 53.03169998 -4.46094818 53.77116364 -4.44950867 54.53303528 C-3.92547274 57.10275858 -3.17994925 57.97148328 -1.05078125 59.48828125 C1.22360163 59.9592714 1.22360163 59.9592714 3.7878418 59.9206543 C4.76863205 59.94044846 5.7494223 59.96024261 6.75993347 59.9806366 C7.8162648 59.98702652 8.87259613 59.99341644 9.9609375 60 C11.04429886 60.0179512 12.12766022 60.0359024 13.24385071 60.05439758 C16.70810032 60.1086311 20.17221113 60.14243869 23.63671875 60.17578125 C25.98374333 60.20894274 28.33074956 60.24343129 30.67773438 60.27929688 C36.43479588 60.36436535 42.19181529 60.43111465 47.94921875 60.48828125 C47.94921875 65.10828125 47.94921875 69.72828125 47.94921875 74.48828125 C40.83254255 74.56266761 33.71609479 74.6169958 26.59912109 74.65307617 C24.18013565 74.66812404 21.76117732 74.68856713 19.34228516 74.71459961 C15.85702812 74.75115825 12.37213315 74.76804815 8.88671875 74.78125 C7.81244629 74.79673386 6.73817383 74.81221771 5.63134766 74.82817078 C-1.92668408 74.82984905 -7.83242445 74.13448573 -13.86328125 69.17578125 C-19.41500749 62.35508901 -19.51805021 56.55010824 -19.51953125 48.046875 C-19.52714478 46.84644058 -19.5347583 45.64600616 -19.54260254 44.40919495 C-19.55338766 41.87674028 -19.55626313 39.3442412 -19.55175781 36.81176758 C-19.55078372 32.93560982 -19.5924652 29.06141995 -19.63671875 25.18554688 C-19.64192453 22.72266037 -19.64461396 20.259767 -19.64453125 17.796875 C-19.66092651 16.63844589 -19.67732178 15.48001678 -19.69421387 14.28648376 C-19.65452164 9.67378766 -19.51158581 6.38791824 -17.3918457 2.24951172 C-11.85740728 -0.66794819 -6.12911204 -0.12128838 0 0 Z " fill="#FFFFFF" transform="translate(598.05078125,490.51171875)"/>
<path d="M0 0 C1.35683751 1.6475884 2.68456721 3.31916921 4 5 C4.763125 5.928125 5.52625 6.85625 6.3125 7.8125 C8.4456161 11.8417193 7.99647219 14.71366491 7 19 C6.01885031 21.72219291 4.78030425 24.25192101 3.4375 26.8125 C2.8974231 27.85833252 2.8974231 27.85833252 2.34643555 28.92529297 C-15.66525111 62.98532568 -50.73462868 84.64202603 -86.4375 96.1875 C-88.61895397 96.81314543 -90.80730863 97.41495455 -93 98 C-93.71607422 98.1969043 -94.43214844 98.39380859 -95.16992188 98.59667969 C-122.26577147 105.9550842 -149.13795336 106.44453437 -177 106 C-177.33 105.34 -177.66 104.68 -178 104 C-176.7625 103.82984375 -175.525 103.6596875 -174.25 103.484375 C-169.52022086 102.82740979 -164.79472297 102.14318891 -160.0703125 101.44873047 C-158.08667344 101.15881884 -156.10233257 100.87365148 -154.1171875 100.59423828 C-136.98876429 98.16122362 -120.5491164 94.01718621 -104 89 C-103.06671875 88.71785645 -102.1334375 88.43571289 -101.171875 88.14501953 C-74.75737211 79.97553407 -50.8073652 67.33079702 -31 48 C-30.29746094 47.35933594 -29.59492187 46.71867188 -28.87109375 46.05859375 C-15.64726141 33.68963542 -6.05460904 16.92900554 0 0 Z " fill="#AC1068" transform="translate(866,546)"/>
<path d="M0 0 C0.33 0 0.66 0 1 0 C4.3711925 15.0201646 4.3711925 15.0201646 1.3984375 21.48046875 C-1.19295501 24.67539405 -3.88278503 27.33473383 -7 30 C-7.52754883 30.47518066 -8.05509766 30.95036133 -8.59863281 31.43994141 C-37.43512424 57.20596059 -77.35549828 60.44859315 -114.3125 60.375 C-115.30491699 60.37478851 -116.29733398 60.37457703 -117.31982422 60.37435913 C-143.09657178 60.31996149 -173.09647835 59.61296888 -197 49 C-193.59147616 47.86382539 -192.08559429 48.16031565 -188.5859375 48.77734375 C-159.6162156 53.48649431 -129.10253367 54.21351574 -100 50 C-98.48623779 49.7819873 -98.48623779 49.7819873 -96.94189453 49.55957031 C-59.83960103 43.92078704 -27.46087088 28.67811941 -1 2 C-0.67 1.34 -0.34 0.68 0 0 Z " fill="#157EAB" transform="translate(904,607)"/>
<path d="M0 0 C23.76 0 47.52 0 72 0 C72 4.62 72 9.24 72 14 C62.43 14 52.86 14 43 14 C43 33.47 43 52.94 43 73 C38.38 73 33.76 73 29 73 C29 53.53 29 34.06 29 14 C19.43 14 9.86 14 0 14 C0 9.38 0 4.76 0 0 Z " fill="#FFFFFF" transform="translate(600,577)"/>
<path d="M0 0 C4.62 0 9.24 0 14 0 C14 24.09 14 48.18 14 73 C9.38 73 4.76 73 0 73 C0 48.91 0 24.82 0 0 Z " fill="#FFFFFF" transform="translate(489,577)"/>
<path d="M0 0 C13.86 0 27.72 0 42 0 C42 4.62 42 9.24 42 14 C28.14 14 14.28 14 0 14 C0 9.38 0 4.76 0 0 Z " fill="#FFFFFF" transform="translate(598,521)"/>
<path d="M0 0 C0.99 0.495 0.99 0.495 2 1 C-32.99990383 31.69087044 -80.65361111 42.51162902 -126.12524414 42.20581055 C-128.95923767 42.18735847 -131.7929052 42.18530321 -134.62695312 42.18554688 C-143.45789108 42.16789137 -152.22420147 42.11771492 -161 41 C-161 40.67 -161 40.34 -161 40 C-159.27221313 39.970271 -159.27221313 39.970271 -157.50952148 39.93994141 C-101.23274367 38.9378736 -46.39754103 35.22095428 0 0 Z " fill="#F133A6" transform="translate(874,614)"/>
<path d="M0 0 C2.21938778 3.32908167 3.42348225 6.68145864 4.6875 10.4375 C4.92533203 11.10587891 5.16316406 11.77425781 5.40820312 12.46289062 C7.50839899 18.67725317 7.50839899 18.67725317 6 22 C4.66015625 24.359375 4.66015625 24.359375 3.0625 26.75 C2.53785156 27.54921875 2.01320313 28.3484375 1.47265625 29.171875 C0.98667969 29.77515625 0.50070312 30.3784375 0 31 C-0.66 31 -1.32 31 -2 31 C-2.86928276 28.60872043 -3.72051601 26.21338274 -4.5625 23.8125 C-4.80935547 23.13896484 -5.05621094 22.46542969 -5.31054688 21.77148438 C-6.69690794 17.76861089 -7.43196051 15.03070367 -6 11 C-5.04085627 9.03123129 -4.0166077 7.09315829 -2.9375 5.1875 C-2.11572266 3.72376953 -2.11572266 3.72376953 -1.27734375 2.23046875 C-0.85582031 1.49441406 -0.43429687 0.75835938 0 0 Z " fill="#F53DAA" transform="translate(915,565)"/>
<path d="M0 0 C0 0.66 0 1.32 0 2 C-21.30244094 9.21301612 -43.85362649 8.32914408 -66 7 C-66 6.67 -66 6.34 -66 6 C-65.06824951 5.97812622 -65.06824951 5.97812622 -64.11767578 5.95581055 C-51.68621558 5.63440517 -39.35740071 4.99411745 -27 3.5625 C-25.40115967 3.37917114 -25.40115967 3.37917114 -23.77001953 3.19213867 C-18.39270599 2.53669074 -13.15450673 1.69935686 -7.89477539 0.39477539 C-5.24718165 -0.15684928 -2.6910773 -0.13800396 0 0 Z " fill="#EE1294" transform="translate(767,646)"/>
<path d="M0 0 C7.26 0 14.52 0 22 0 C17.56421334 3.32683999 15.59752212 3.30511542 10.4375 2.8125 C9.76525391 2.76802734 9.09300781 2.72355469 8.40039062 2.67773438 C4.83958248 2.39131386 3.03039769 2.02026513 0 0 Z " fill="#C2A070" transform="translate(671,649)"/>
<path d="M0 0 C1.98073365 0.280828 3.95958448 0.57496614 5.9375 0.875 C7.59072266 1.11863281 7.59072266 1.11863281 9.27734375 1.3671875 C10.17582031 1.57601562 11.07429687 1.78484375 12 2 C12.33 2.66 12.66 3.32 13 4 C11.3973218 4.10824843 9.79254252 4.18570645 8.1875 4.25 C7.29417969 4.29640625 6.40085937 4.3428125 5.48046875 4.390625 C3 4 3 4 1.17578125 1.984375 C0.78777344 1.32953125 0.39976562 0.6746875 0 0 Z " fill="#27A8DD" transform="translate(695,653)"/>
<path d="M0 0 C1.5843317 0.08768248 3.16753567 0.19587329 4.75 0.3125 C6.07257812 0.39951172 6.07257812 0.39951172 7.421875 0.48828125 C10.32303774 1.0641181 11.79225607 2.07596148 14 4 C9.02906176 3.58846263 4.55491614 3.20399168 0 1 C0 0.67 0 0.34 0 0 Z " fill="#2E76AC" transform="translate(707,655)"/>
<path d="M0 0 C2.31 0.66 4.62 1.32 7 2 C7.33 3.32 7.66 4.64 8 6 C4.63408134 4.55746343 2.48952921 2.66735273 0 0 Z " fill="#49C2F4" transform="translate(700,657)"/>
</svg>