<svg width="163" height="65" viewBox="0 0 163 65" fill="none" xmlns="http://www.w3.org/2000/svg">
<g clip-path="url(#clip0_1014_869)">
<path d="M28.9828 47.4683C28.9828 48.6763 28.8401 49.7665 28.5549 50.7389C28.2696 51.7112 27.8702 52.5363 27.3853 53.2729C26.9003 54.0095 26.3013 54.6283 25.6737 55.1587C25.0461 55.689 24.333 56.1015 23.6483 56.4257C22.9637 56.7498 22.222 56.9855 21.5088 57.1328C20.7957 57.2801 20.111 57.3685 19.4835 57.3685H7.73058V52.0354H19.4264C20.0825 51.9764 20.6816 51.8291 21.2236 51.6228C21.7656 51.3871 22.222 51.0925 22.5928 50.7094C22.9637 50.3264 23.2775 49.8549 23.4772 49.3246C23.6768 48.7942 23.791 48.1754 23.791 47.4977V45.0816C23.7339 44.4039 23.5913 43.7851 23.3631 43.2253C23.1348 42.6655 22.8496 42.194 22.5073 41.7815C22.1364 41.3985 21.7085 41.0743 21.1951 40.8386C20.6816 40.6029 20.0825 40.5145 19.3979 40.5145H7.7591C7.07447 40.5145 6.53247 40.6913 6.19015 41.0743C5.81931 41.4574 5.64815 41.9878 5.64815 42.6655V64.617H0.484863V42.6655C0.484863 41.3101 0.713075 40.1315 1.19802 39.1886C1.68297 38.2162 2.28203 37.4501 2.99519 36.8608C3.70835 36.2715 4.50709 35.8296 5.36288 35.5644C6.21868 35.2992 6.98889 35.1519 7.70205 35.1519H19.3979C20.5675 35.1519 21.6229 35.2992 22.5358 35.6233C23.4772 35.9179 24.2759 36.3305 24.9891 36.8608C25.7022 37.3617 26.3013 37.9805 26.7862 38.6287C27.2712 39.3064 27.6991 40.0136 28.0129 40.7208C28.3267 41.4574 28.5834 42.194 28.726 42.9306C28.8687 43.6673 28.9542 44.3744 28.9542 45.0227V47.4388L28.9828 47.4683Z" fill="white"/>
<path d="M61.8737 45.0523C61.8737 46.2604 61.7311 47.3506 61.4458 48.3229C61.1606 49.2953 60.7612 50.1203 60.2762 50.8569C59.7913 51.5935 59.1922 52.2123 58.5646 52.7427C57.9085 53.273 57.2239 53.6856 56.5393 54.0391C55.8261 54.3633 55.1129 54.6284 54.3998 54.7758C53.6866 54.9231 53.002 55.0115 52.3744 55.0115L63.1574 64.6466H55.17L44.387 55.0115H40.6786V49.6783H52.3744C53.0305 49.6194 53.6296 49.472 54.143 49.2658C54.685 49.0301 55.1415 48.7354 55.5408 48.3524C55.9402 47.9693 56.2255 47.4979 56.4537 46.9675C56.6819 46.4371 56.7675 45.8184 56.7675 45.1112V41.7522C56.7675 41.4575 56.739 41.2218 56.6534 41.0745C56.5678 40.9272 56.4822 40.8093 56.3681 40.7209C56.254 40.6325 56.1399 40.6031 55.9973 40.5736C55.8832 40.5736 55.7691 40.5736 55.6549 40.5736H38.5961V64.676H33.4329V37.9217C33.4329 37.5387 33.4899 37.2146 33.6325 36.861C33.7752 36.5369 33.9463 36.2422 34.1745 36.0065C34.4028 35.7708 34.688 35.5645 35.0018 35.4172C35.3156 35.2699 35.6579 35.2109 36.0288 35.2109H55.6549C56.796 35.2109 57.7944 35.4172 58.5646 35.8592C59.3349 36.3011 60.0195 36.8315 60.5044 37.4798C60.9894 38.128 61.3602 38.8351 61.5884 39.5718C61.8167 40.3379 61.9308 41.045 61.9308 41.6933V45.1112L61.8737 45.0523Z" fill="white"/>
<path d="M72.2858 64.5875H67.1226V35.1519H72.2858V64.5875Z" fill="white"/>
<path d="M106.803 62.3187C106.803 62.7018 106.746 63.0554 106.603 63.3795C106.461 63.7036 106.289 63.9983 106.033 64.234C105.776 64.4697 105.519 64.6465 105.205 64.7938C104.892 64.9411 104.549 65.0001 104.178 65.0001C103.865 65.0001 103.551 64.9411 103.209 64.8233C102.866 64.7054 102.609 64.4992 102.353 64.234L83.4682 43.8736V64.617H78.3049V37.4502C78.3049 36.8904 78.4476 36.4189 78.7614 35.9475C79.0466 35.5055 79.446 35.1814 79.9024 34.9457C80.3874 34.7394 80.9008 34.6805 81.4143 34.7984C81.9278 34.8867 82.3842 35.1519 82.7551 35.535L101.64 55.8954V35.1519H106.803V62.3187Z" fill="white"/>
<path d="M138.581 40.485H127.199V64.5875H122.036V40.485H110.625V35.1519H138.61V40.485H138.581Z" fill="white"/>
<path d="M28.4979 27.1669C28.4979 27.5499 28.4409 27.9035 28.2982 28.2276C28.1556 28.5518 27.9844 28.8464 27.7277 29.0821C27.4995 29.3179 27.2142 29.5241 26.9004 29.642C26.5866 29.7893 26.2443 29.8482 25.8735 29.8482H14.2347C13.1222 29.8482 12.0096 29.7304 10.8971 29.4652C9.78456 29.2295 8.67204 28.8464 7.61656 28.316C6.56108 27.8151 5.56265 27.1374 4.64981 26.3419C3.70844 25.5463 2.9097 24.6034 2.22506 23.5132C1.54043 22.423 0.969899 21.1855 0.599055 19.7712C0.228211 18.3568 0 16.7952 0 15.0862V0.412598H5.16328V15.1451C5.16328 16.6479 5.36297 17.9149 5.76234 18.9756C6.16171 20.0364 6.67518 20.8908 7.30277 21.598C7.93035 22.3052 8.61498 22.8355 9.35667 23.248C10.0984 23.6606 10.8115 23.9257 11.4676 24.132C12.1237 24.3383 12.7228 24.4561 13.2363 24.4856C13.7497 24.5445 14.0921 24.5445 14.2347 24.5445H23.3061V0.412598H28.4694V27.1669H28.4979Z" fill="white"/>
<path d="M62.9864 27.5793C62.9864 27.9623 62.9294 28.3159 62.7867 28.64C62.6441 28.9641 62.473 29.2588 62.2162 29.4945C61.988 29.7302 61.7027 29.907 61.389 30.0543C61.0752 30.2017 60.7328 30.2606 60.362 30.2606C60.0482 30.2606 59.7344 30.2017 59.3921 30.0838C59.0783 29.966 58.793 29.7597 58.5363 29.4945L39.6518 9.13413V29.8776H34.4885V2.68127C34.4885 2.12143 34.6312 1.64999 34.9449 1.17855C35.2302 0.736574 35.6296 0.412458 36.086 0.176737C36.5995 -5.36547e-05 37.0844 -0.0589838 37.5979 0.0588765C38.1114 0.147272 38.5678 0.412458 38.9386 0.795504L57.8231 21.1559V0.412458H62.9864V27.5793Z" fill="white"/>
<path d="M97.4462 17.532C97.4462 19.3294 97.1324 20.9794 96.5333 22.4821C95.9343 23.9848 95.107 25.2813 94.0515 26.3715C92.9961 27.4617 91.7409 28.3162 90.286 28.935C88.8312 29.5537 87.2337 29.8484 85.5221 29.8484H71.5727C71.2019 29.8484 70.8595 29.7895 70.5458 29.6421C70.232 29.4948 69.9467 29.318 69.7185 29.0823C69.4903 28.8466 69.2906 28.5519 69.1765 28.2278C69.0624 27.9037 68.9768 27.5501 68.9768 27.1671V3.09409C68.9768 2.71104 69.0339 2.38693 69.1765 2.03335C69.3191 1.67976 69.4903 1.41458 69.7185 1.17886C69.9467 0.943138 70.232 0.736882 70.5458 0.589556C70.8595 0.442231 71.2019 0.383301 71.5727 0.383301H85.5221C87.2337 0.383301 88.8027 0.677952 90.286 1.29672C91.7409 1.91549 92.9961 2.76997 94.0515 3.86018C95.107 4.95039 95.9343 6.24685 96.5333 7.74957C97.1324 9.25229 97.4462 10.9023 97.4462 12.6997V17.5025V17.532ZM92.2829 12.7292C92.2829 11.6979 92.1117 10.7255 91.7979 9.87106C91.4842 9.01657 90.9992 8.27995 90.4287 7.66118C89.8296 7.04241 89.1165 6.57097 88.2892 6.24685C87.4619 5.92274 86.5491 5.74595 85.5221 5.74595H74.1401V24.5152H85.5221C86.5206 24.5152 87.4334 24.3384 88.2892 24.0143C89.1165 23.6902 89.8296 23.2188 90.4287 22.6C91.0277 21.9812 91.4842 21.2446 91.7979 20.3901C92.1117 19.5356 92.2829 18.5927 92.2829 17.532V12.7292Z" fill="white"/>
<path d="M128.283 29.8484H109.627C108.914 29.8484 108.115 29.7305 107.288 29.4654C106.432 29.2002 105.662 28.7877 104.92 28.1689C104.207 27.5796 103.608 26.8135 103.123 25.8411C102.638 24.8983 102.41 23.7197 102.41 22.3348V3.09409C102.41 2.71104 102.467 2.38693 102.61 2.03335C102.752 1.67976 102.923 1.41458 103.152 1.17886C103.38 0.943138 103.665 0.736882 103.979 0.589556C104.293 0.442231 104.635 0.383301 105.006 0.383301H128.283V5.71648H107.573V22.3348C107.573 23.042 107.744 23.5723 108.115 23.9259C108.486 24.2795 109 24.4858 109.684 24.4858H128.283V29.8189V29.8484ZM125.944 17.8266H109.627V12.4345H125.944V17.8266Z" fill="white"/>
<path d="M161.745 10.313C161.745 11.5211 161.602 12.6113 161.317 13.5837C161.032 14.556 160.632 15.381 160.147 16.1177C159.662 16.8543 159.063 17.4731 158.436 18.0034C157.78 18.5338 157.095 18.9463 156.41 19.2999C155.697 19.624 154.984 19.8892 154.271 20.0365C153.558 20.1838 152.873 20.2722 152.246 20.2722L163.028 29.9073H155.041L144.258 20.2722H140.55V14.9391H152.246C152.902 14.8801 153.501 14.7328 154.014 14.5265C154.556 14.2908 155.013 13.9962 155.412 13.6131C155.811 13.2301 156.097 12.7586 156.325 12.2283C156.553 11.6979 156.639 11.0791 156.639 10.372V7.01295C156.639 6.7183 156.61 6.48258 156.524 6.33525C156.439 6.18792 156.353 6.07006 156.239 5.98167C156.125 5.89327 156.011 5.86381 155.868 5.83434C155.754 5.83434 155.64 5.83434 155.526 5.83434H138.467V29.9368H133.304V3.09409C133.304 2.71104 133.361 2.38693 133.504 2.03335C133.646 1.67976 133.817 1.41458 134.046 1.17886C134.274 0.943138 134.559 0.736882 134.873 0.589556C135.187 0.442231 135.529 0.383301 135.9 0.383301H155.526C156.667 0.383301 157.666 0.589556 158.436 1.03153C159.206 1.47351 159.862 2.00388 160.376 2.65211C160.86 3.30035 161.231 4.00751 161.46 4.74413C161.688 5.51023 161.773 6.18792 161.773 6.86562V10.2836L161.745 10.313Z" fill="white"/>
</g>
<defs>
<clipPath id="clip0_1014_869">
<rect width="163" height="65" fill="white"/>
</clipPath>
</defs>
</svg>
