<svg width="36" height="37" viewBox="0 0 36 37" fill="none" xmlns="http://www.w3.org/2000/svg">
<path fill-rule="evenodd" clip-rule="evenodd" d="M18.3094 0.809006C8.74721 0.809006 0.995773 8.52526 0.995773 18.0444C0.995773 21.3004 1.90353 24.3456 3.48007 26.9435L0.355469 36.1904L9.94099 33.135C12.4213 34.5006 15.2738 35.2788 18.3094 35.2788C27.8709 35.2788 35.6223 27.5629 35.6223 18.0444C35.6223 8.52526 27.8709 0.809006 18.3094 0.809006ZM18.3094 32.5341C15.3525 32.5341 12.5996 31.6512 10.301 30.1377L4.70728 31.921L6.52526 26.5397C4.78281 24.1508 3.75324 21.2155 3.75324 18.0441C3.75324 10.054 10.283 3.55376 18.3094 3.55376C26.3352 3.55376 32.8652 10.054 32.8652 18.0441C32.8652 26.0338 26.3352 32.5341 18.3094 32.5341Z" fill="white"/>
<path fill-rule="evenodd" clip-rule="evenodd" d="M14.2486 10.9153C13.9681 10.2425 13.7533 10.2197 13.3201 10.1992C13.1715 10.1921 13.0104 10.1853 12.8341 10.1853C12.276 10.1853 11.6973 10.3489 11.3486 10.7041C10.9242 11.1363 9.86304 12.1486 9.86304 14.2271C9.86304 16.3059 11.3839 18.3146 11.5957 18.5966C11.8082 18.8783 14.5619 23.2065 18.846 24.9736C22.1899 26.3525 23.1828 26.2297 23.9457 26.0636C25.0557 25.8223 26.4497 25.0084 26.8033 24.0223C27.157 23.0356 27.157 22.1899 27.051 22.0142C26.9448 21.8378 26.6618 21.7326 26.2375 21.5207C25.8131 21.3095 23.7262 20.2875 23.3373 20.1468C22.9482 20.006 22.5885 20.0489 22.2893 20.461C21.8764 21.03 21.4792 21.6147 21.1503 21.9614C20.8921 22.2335 20.4767 22.2714 20.1195 22.1202C19.6498 21.921 18.3275 21.4623 16.7063 20.0234C15.4448 18.9038 14.593 17.5208 14.3453 17.0977C14.0977 16.6752 14.3235 16.423 14.5143 16.1931C14.7319 15.9307 14.9327 15.7423 15.1449 15.4959C15.3571 15.2491 15.4756 15.1177 15.6171 14.8354C15.7586 14.5537 15.6634 14.263 15.5572 14.0514C15.4507 13.8397 14.6012 11.7615 14.2486 10.9153Z" fill="white"/>
</svg>
