<svg width="141" height="51" viewBox="0 0 141 51" fill="none" xmlns="http://www.w3.org/2000/svg">
<path fill-rule="evenodd" clip-rule="evenodd" d="M62.293 27.5013H62.2591L60.1842 19.1706H57.6839L55.5748 27.4002H55.5409L53.6192 19.1706H50.9487L54.1634 31.26H56.8681L58.8916 23.0319H58.9258L60.9833 31.26H63.637L66.9025 19.1706H64.2837L62.293 27.5013ZM75.0492 23.2603C74.8107 22.9497 74.4849 22.7078 74.0713 22.5326C73.6572 22.3571 73.1272 22.2699 72.4813 22.2699C72.0272 22.2699 71.5626 22.386 71.0859 22.6165C70.6104 22.8483 70.2188 23.2178 69.9124 23.7261H69.8619V19.1706H67.4464V31.26H69.8619V26.672C69.8619 25.7807 70.0085 25.14 70.3037 24.7499C70.5987 24.3603 71.0747 24.1664 71.7328 24.1664C72.3105 24.1664 72.7132 24.3436 72.9399 24.6994C73.1667 25.0551 73.2806 25.595 73.2806 26.3163V31.26H75.6954V25.8767C75.6954 25.3346 75.6476 24.8411 75.5514 24.3952C75.4541 23.9492 75.2871 23.5709 75.0492 23.2603ZM84.9981 29.3136V24.7585C84.9981 24.2284 84.8796 23.8019 84.6408 23.4805C84.4029 23.1587 84.0966 22.9071 83.7229 22.7266C83.3487 22.546 82.9339 22.4244 82.4812 22.3625C82.0277 22.3015 81.5798 22.2697 81.1377 22.2697C80.6505 22.2697 80.165 22.3179 79.6836 22.4133C79.2009 22.509 78.7677 22.67 78.382 22.8957C77.9966 23.1221 77.6791 23.4208 77.4304 23.7928C77.1805 24.1663 77.0387 24.6342 77.0045 25.1994H79.4196C79.4649 24.7245 79.6245 24.386 79.896 24.1828C80.1681 23.9797 80.5417 23.8777 81.0187 23.8777C81.234 23.8777 81.4348 23.8922 81.6223 23.9207C81.8092 23.949 81.9738 24.0049 82.1158 24.0892C82.2575 24.1747 82.3705 24.2929 82.4558 24.445C82.5405 24.5981 82.5833 24.804 82.5833 25.0632C82.5945 25.3114 82.5205 25.501 82.3623 25.6308C82.2031 25.7608 81.9884 25.8594 81.7157 25.9263C81.4436 25.9949 81.1317 26.046 80.7804 26.0788C80.4286 26.1132 80.0715 26.1587 79.709 26.2152C79.3456 26.2717 78.9859 26.3479 78.6292 26.4435C78.2718 26.5392 77.9532 26.6838 77.6773 26.8751C77.3988 27.068 77.1715 27.3238 76.9963 27.6458C76.8203 27.9675 76.7324 28.3765 76.7324 28.8724C76.7324 29.3251 76.8088 29.7145 76.9627 30.0407C77.115 30.369 77.3275 30.6399 77.5996 30.8537C77.8723 31.0691 78.1891 31.2266 78.5524 31.328C78.9146 31.4297 79.306 31.4802 79.7259 31.4802C80.2701 31.4802 80.8033 31.4016 81.3238 31.2443C81.8455 31.0849 82.3003 30.8086 82.685 30.414C82.6962 30.5602 82.7161 30.7044 82.7446 30.8459C82.7731 30.9864 82.8099 31.1254 82.8553 31.26H85.3044C85.1915 31.0804 85.1116 30.8086 85.0666 30.448C85.021 30.087 84.9981 29.7089 84.9981 29.3136ZM82.5833 27.8736C82.5833 28.009 82.5694 28.1905 82.5405 28.4161C82.5126 28.6418 82.4358 28.8638 82.3114 29.0841C82.1865 29.3045 81.9927 29.494 81.7332 29.6512C81.4722 29.8094 81.1038 29.8895 80.6271 29.8895C80.4349 29.8895 80.2478 29.8715 80.0664 29.8381C79.8847 29.8046 79.7263 29.745 79.5897 29.6602C79.4543 29.5753 79.3461 29.4604 79.2668 29.3136C79.1876 29.1664 79.1476 28.9858 79.1476 28.7718C79.1476 28.5461 79.1876 28.3595 79.2668 28.2127C79.3461 28.0668 79.4512 27.9455 79.5818 27.8492C79.7118 27.7526 79.865 27.6771 80.0407 27.6199C80.2167 27.5631 80.3947 27.5189 80.5764 27.4845C80.7686 27.4511 80.9624 27.4226 81.1543 27.4002C81.3478 27.3785 81.5318 27.3491 81.7075 27.3156C81.8834 27.2816 82.0472 27.2395 82.2009 27.1884C82.3538 27.1378 82.4815 27.068 82.5836 26.9771V27.8736H82.5833ZM89.5053 19.882H87.0901V22.5064H85.6282V24.1151H87.0901V29.2786C87.0901 29.7191 87.1644 30.0749 87.3114 30.3457C87.4592 30.6166 87.6603 30.8266 87.9147 30.9722C88.1701 31.1191 88.4649 31.2184 88.7996 31.269C89.1336 31.3189 89.4891 31.3448 89.8624 31.3448C90.1015 31.3448 90.3445 31.3385 90.5943 31.328C90.8434 31.3166 91.0701 31.2942 91.2746 31.26V29.3975C91.161 29.4207 91.0418 29.4382 90.9172 29.449C90.7926 29.4604 90.6621 29.4658 90.5261 29.4658C90.1179 29.4658 89.8459 29.3975 89.7093 29.2621C89.5742 29.1267 89.5057 28.8558 89.5057 28.4496V24.1153H91.2747V22.5065H89.5057V19.882H89.5053ZM99.4889 27.4258C99.3303 27.1495 99.1201 26.9175 98.8596 26.7309C98.599 26.5449 98.3004 26.3956 97.9666 26.2819C97.6316 26.1699 97.2888 26.0742 96.9376 25.9949C96.5973 25.916 96.2633 25.8423 95.9347 25.7745C95.6058 25.7069 95.3131 25.6306 95.058 25.5462C94.8033 25.4613 94.5968 25.3511 94.4377 25.2157C94.2786 25.0803 94.2001 24.9051 94.2001 24.6906C94.2001 24.5106 94.2446 24.3667 94.3353 24.2587C94.4263 24.1522 94.5369 24.07 94.6674 24.0131C94.798 23.9572 94.9414 23.9207 95.1006 23.9039C95.2593 23.8868 95.4071 23.8777 95.5428 23.8777C95.9739 23.8777 96.3481 23.9604 96.6662 24.1233C96.983 24.2875 97.1593 24.6003 97.1921 25.0632H99.4889C99.4436 24.5214 99.3049 24.0727 99.0718 23.7171C98.8403 23.3617 98.5476 23.0771 98.1967 22.8621C97.8452 22.6481 97.4454 22.4956 96.9969 22.4047C96.5488 22.3144 96.0873 22.2699 95.6118 22.2699C95.1351 22.2699 94.6699 22.3119 94.2173 22.3971C93.7624 22.4811 93.3543 22.6283 92.9927 22.8369C92.6287 23.0457 92.338 23.3307 92.1161 23.6919C91.8948 24.0533 91.7841 24.5162 91.7841 25.0804C91.7841 25.465 91.864 25.7892 92.0229 26.0539C92.1805 26.3194 92.3911 26.5392 92.6511 26.7147C92.9124 26.8893 93.2103 27.0307 93.5447 27.1378C93.879 27.2455 94.2224 27.3383 94.5731 27.4176C95.4359 27.5976 96.1076 27.7782 96.5894 27.9588C97.0712 28.139 97.3119 28.4108 97.3119 28.7718C97.3119 28.9858 97.2611 29.1627 97.1593 29.3045C97.0574 29.4462 96.9293 29.5584 96.7765 29.6433C96.6227 29.7282 96.4527 29.7901 96.2665 29.829C96.0791 29.869 95.9002 29.8895 95.7299 29.8895C95.4923 29.8895 95.2624 29.8601 95.0423 29.8046C94.8203 29.7478 94.6251 29.6601 94.4549 29.5416C94.2846 29.4231 94.145 29.271 94.0378 29.0841C93.9308 28.8982 93.876 28.6761 93.876 28.4161H91.5801C91.6033 29.0029 91.7361 29.4914 91.9807 29.8804C92.223 30.2698 92.5344 30.5829 92.9153 30.8203C93.295 31.0571 93.7295 31.2266 94.2173 31.328C94.7038 31.4297 95.2031 31.4802 95.7127 31.4802C96.2116 31.4802 96.7022 31.4323 97.1847 31.3369C97.6662 31.2406 98.0943 31.0739 98.4685 30.8368C98.8434 30.6 99.1457 30.2867 99.3791 29.8972C99.6106 29.5079 99.7267 29.0251 99.7267 28.4495C99.7265 28.043 99.6476 27.7021 99.4889 27.4258ZM104.285 19.1706L99.6929 31.26H102.381L103.332 28.5684H107.874L108.792 31.26H111.565L107.024 19.1706H104.285ZM104.03 26.5878L105.612 22.1508H105.646L107.177 26.5878H104.03ZM119.915 23.6919C119.587 23.2631 119.173 22.919 118.674 22.6591C118.174 22.3993 117.579 22.27 116.888 22.27C116.343 22.27 115.845 22.3774 115.391 22.5914C114.937 22.8058 114.564 23.1503 114.269 23.6242H114.235V22.5065H111.938V34.3251H114.354V30.1773H114.387C114.682 30.6058 115.059 30.9303 115.519 31.1505C115.977 31.3708 116.479 31.4804 117.024 31.4804C117.671 31.4804 118.235 31.3557 118.716 31.1078C119.198 30.8602 119.601 30.5265 119.924 30.1091C120.248 29.6917 120.488 29.2117 120.647 28.6703C120.805 28.1279 120.885 27.5631 120.885 26.9773C120.885 26.3562 120.805 25.7608 120.647 25.1906C120.488 24.6208 120.244 24.1213 119.915 23.6919ZM118.368 27.942C118.3 28.2808 118.183 28.5763 118.019 28.8304C117.854 29.0843 117.639 29.2914 117.372 29.4492C117.106 29.6063 116.774 29.6863 116.377 29.6863C115.991 29.6863 115.664 29.6062 115.391 29.4492C115.119 29.2915 114.901 29.0845 114.736 28.8304C114.572 28.5765 114.453 28.2809 114.379 27.942C114.305 27.6031 114.269 27.2588 114.269 26.9098C114.269 26.548 114.302 26.1981 114.37 25.8596C114.439 25.5211 114.555 25.2212 114.72 24.9622C114.883 24.7022 115.099 24.4903 115.366 24.3267C115.632 24.1635 115.963 24.082 116.361 24.082C116.746 24.082 117.073 24.1635 117.339 24.3267C117.605 24.4904 117.824 24.7059 117.994 24.9704C118.163 25.2359 118.285 25.5377 118.358 25.8768C118.433 26.2154 118.469 26.5603 118.469 26.9099C118.469 27.2588 118.436 27.6031 118.368 27.942ZM130.273 25.1904C130.114 24.6208 129.87 24.1213 129.542 23.6917C129.212 23.2629 128.799 22.9188 128.3 22.6589C127.801 22.3991 127.206 22.2699 126.514 22.2699C125.97 22.2699 125.471 22.3773 125.018 22.5913C124.563 22.8056 124.189 23.1501 123.895 23.6241H123.862V22.5064H121.565V34.325H123.979V30.1772H124.014C124.309 30.6057 124.687 30.9302 125.145 31.1503C125.604 31.3707 126.107 31.4802 126.651 31.4802C127.297 31.4802 127.861 31.3556 128.343 31.1077C128.824 30.8601 129.228 30.5263 129.55 30.1089C129.874 29.6915 130.115 29.2116 130.273 28.6701C130.432 28.1278 130.511 27.5629 130.511 26.9771C130.511 26.356 130.432 25.7607 130.273 25.1904ZM127.994 27.942C127.926 28.2808 127.81 28.5763 127.646 28.8304C127.481 29.0843 127.266 29.2914 126.999 29.4492C126.733 29.6063 126.401 29.6863 126.004 29.6863C125.619 29.6863 125.29 29.6062 125.018 29.4492C124.745 29.2915 124.527 29.0845 124.362 28.8304C124.199 28.5765 124.079 28.2809 124.005 27.942C123.932 27.6031 123.895 27.2588 123.895 26.9098C123.895 26.548 123.93 26.1981 123.997 25.8596C124.065 25.5211 124.181 25.2212 124.346 24.9622C124.51 24.7022 124.726 24.4903 124.992 24.3267C125.258 24.1635 125.59 24.082 125.987 24.082C126.373 24.082 126.699 24.1635 126.965 24.3267C127.232 24.4904 127.449 24.7059 127.619 24.9704C127.791 25.2359 127.912 25.5377 127.986 25.8768C128.06 26.2154 128.096 26.5603 128.096 26.9099C128.096 27.2588 128.062 27.6031 127.994 27.942Z" fill="white"/>
<path fill-rule="evenodd" clip-rule="evenodd" d="M28.3094 6.80901C18.7472 6.80901 10.9958 14.5253 10.9958 24.0444C10.9958 27.3004 11.9035 30.3456 13.4801 32.9435L10.3555 42.1904L19.941 39.135C22.4213 40.5006 25.2738 41.2788 28.3094 41.2788C37.8709 41.2788 45.6223 33.5629 45.6223 24.0444C45.6223 14.5253 37.8709 6.80901 28.3094 6.80901ZM28.3094 38.5341C25.3525 38.5341 22.5996 37.6512 20.301 36.1377L14.7073 37.921L16.5253 32.5397C14.7828 30.1508 13.7532 27.2155 13.7532 24.0441C13.7532 16.054 20.283 9.55376 28.3094 9.55376C36.3352 9.55376 42.8652 16.054 42.8652 24.0441C42.8652 32.0338 36.3352 38.5341 28.3094 38.5341Z" fill="white"/>
<path fill-rule="evenodd" clip-rule="evenodd" d="M24.2486 16.9153C23.9681 16.2425 23.7533 16.2197 23.3201 16.1992C23.1715 16.1921 23.0104 16.1853 22.8341 16.1853C22.276 16.1853 21.6973 16.3489 21.3486 16.7041C20.9242 17.1363 19.863 18.1486 19.863 20.2271C19.863 22.3059 21.3839 24.3146 21.5957 24.5966C21.8082 24.8783 24.5619 29.2065 28.846 30.9736C32.1899 32.3525 33.1828 32.2297 33.9457 32.0636C35.0557 31.8223 36.4497 31.0084 36.8033 30.0223C37.157 29.0356 37.157 28.1899 37.051 28.0142C36.9448 27.8378 36.6618 27.7326 36.2375 27.5207C35.8131 27.3095 33.7262 26.2875 33.3373 26.1468C32.9482 26.006 32.5885 26.0489 32.2893 26.461C31.8764 27.03 31.4792 27.6147 31.1503 27.9614C30.8921 28.2335 30.4767 28.2714 30.1195 28.1202C29.6498 27.921 28.3275 27.4623 26.7063 26.0234C25.4448 24.9038 24.593 23.5208 24.3453 23.0977C24.0977 22.6752 24.3235 22.423 24.5143 22.1931C24.7319 21.9307 24.9327 21.7423 25.1449 21.4959C25.3571 21.2491 25.4756 21.1177 25.6171 20.8354C25.7586 20.5537 25.6634 20.263 25.5572 20.0514C25.4507 19.8397 24.6012 17.7615 24.2486 16.9153Z" fill="white"/>
</svg>
